<?xml version="1.0" encoding="UTF-8"?>
<!DOCTYPE svg PUBLIC "-//W3C//DTD SVG 1.1//EN" "http://www.w3.org/Graphics/SVG/1.1/DTD/svg11.dtd">
<!-- Creator: CorelDRAW X7 -->
<svg xmlns="http://www.w3.org/2000/svg" xml:space="preserve" width="1020px" height="340px" version="1.1" style="shape-rendering:geometricPrecision; text-rendering:geometricPrecision; image-rendering:optimizeQuality; fill-rule:evenodd; clip-rule:evenodd"
viewBox="0 0 1020 340"
 xmlns:xlink="http://www.w3.org/1999/xlink">
 <defs>
  <style type="text/css">
   <![CDATA[
    .fil2 {fill:#FEFEFE}
    .fil1 {fill:#FEFEFE;fill-rule:nonzero}
    .fil0 {fill:#F8BB00;fill-rule:nonzero}
   ]]>
  </style>
 </defs>
 <g id="Layer_x0020_1">
  <metadata id="CorelCorpID_0Corel-Layer"/>
  <g id="_2447311980896">
   <path class="fil0" d="M463 127l-50 136 -39 0 -51 -136 55 0 19 57c2,5 3,9 4,14 1,-2 1,-4 2,-6 1,-1 1,-2 2,-5l20 -60 38 0zm67 -52l0 42 -54 0 0 -42 54 0zm0 52l0 136 -54 0 0 -136 54 0zm160 136l-53 0 0 -86c0,-7 -1,-11 -4,-13 -2,-2 -4,-3 -8,-3 -9,0 -14,6 -14,20l0 82 -53 0 0 -136 49 0 0 19c7,-15 20,-22 39,-22 10,0 18,2 25,6 7,4 12,8 15,14 2,6 4,17 4,32l0 87zm160 0l-50 0 0 -18c-7,13 -19,20 -36,20 -16,0 -28,-6 -38,-18 -10,-12 -15,-30 -15,-53 0,-22 5,-39 15,-52 10,-13 23,-19 39,-19 13,0 24,5 33,15l0 -58 52 0 0 183zm-52 -88c0,-12 -5,-18 -15,-18 -7,0 -12,4 -14,12 -2,8 -3,17 -3,28 0,22 6,33 17,33 4,0 8,-2 10,-5 3,-4 5,-9 5,-16l0 -34zm217 88l-51 0c-1,-6 -2,-13 -2,-19 -9,14 -24,21 -43,21 -16,0 -28,-4 -36,-12 -8,-8 -12,-17 -12,-28 0,-14 6,-26 19,-35 13,-9 37,-14 70,-16l0 -3c0,-6 -2,-10 -4,-12 -3,-2 -7,-3 -12,-3 -12,0 -19,5 -21,15l-48 -4c7,-29 30,-43 70,-43 11,0 21,1 31,3 9,3 16,6 21,11 6,4 9,9 11,14 2,5 3,15 3,30l0 54c0,10 1,19 4,27zm-55 -64c-23,3 -34,10 -34,22 0,8 4,12 13,12 6,0 11,-2 15,-5 4,-3 6,-11 6,-22l0 -7z"/>
   <path class="fil1" d="M559 120l0 -45 32 0 0 6 -26 0 0 13 24 0 0 6 -24 0 0 15 27 0 0 5 -33 0zm54 0l17 -23 -15 -22 7 0 8 12c2,2 3,4 4,5 1,-1 2,-3 3,-5l9 -12 7 0 -16 22 17 23 -8 0 -11 -16c0,-1 -1,-2 -2,-3 -1,2 -1,3 -2,4l-11 15 -7 0zm95 -16l6 2c-1,5 -4,8 -7,11 -3,2 -7,4 -12,4 -4,0 -8,-1 -11,-3 -3,-2 -6,-5 -7,-9 -2,-3 -2,-7 -2,-12 0,-4 0,-8 2,-12 2,-3 4,-6 8,-8 3,-1 7,-2 10,-2 5,0 9,1 12,3 3,2 5,6 6,10l-6 1c-1,-3 -2,-6 -4,-7 -2,-2 -5,-2 -8,-2 -3,0 -6,1 -8,2 -2,2 -4,4 -5,7 -1,3 -1,5 -1,8 0,4 0,7 1,10 1,3 3,5 5,7 3,1 5,2 8,2 3,0 6,-1 8,-3 3,-2 4,-5 5,-9zm31 16l0 -45 5 0 0 19 23 0 0 -19 6 0 0 45 -6 0 0 -21 -23 0 0 21 -5 0z"/>
   <path class="fil2" d="M308 171c-1,2 -6,12 -6,13l6 12c1,1 4,8 4,8l10 0 -1 4c0,1 0,2 0,3 0,0 -1,4 -1,4 0,0 -1,0 -1,0 1,1 -1,5 -2,6 0,2 -2,4 -3,5l-2 4c0,1 0,1 -1,1 0,1 -4,6 -5,7 0,-1 -1,-3 -1,-4 0,0 -1,-2 -2,-3 0,-1 -1,-2 -1,-3l-2 -4 -22 1c-1,1 -3,5 -4,6 0,1 -7,10 -8,13 1,1 10,13 10,14 -1,0 -1,-1 -2,-2l-9 -12c0,0 -13,0 -13,-1 -1,1 -3,0 -4,0l-5 0c-1,1 -8,13 -9,14 1,1 7,2 8,2 2,1 4,1 5,1 2,0 5,1 6,1l1 0 6 0 0 0c1,0 7,-1 8,-1 2,0 5,-1 7,-2l7 -2 3 -1c1,-1 2,-1 3,-2 1,0 3,-2 3,-2l6 -4c5,-4 7,-6 11,-10 1,-2 4,-6 5,-6 0,-1 0,-1 0,-1l3 -6c0,-1 1,-2 2,-3 0,-1 0,-1 0,-2 1,-1 1,-1 1,-2 0,0 1,-2 1,-3 0,0 2,-6 2,-7 0,-1 0,-2 0,-3 1,-1 1,-3 1,-4l0 -2 0 -4 0 -3 0 -4c0,0 -1,-2 0,-2 0,-1 -1,-1 -1,-1l0 -3 -2 -6 0 -1c0,0 0,0 0,0l-1 -3 -2 -4 -7 -1 -2 5z"/>
   <path class="fil2" d="M241 163l0 1c-1,1 -4,6 -5,8l-1 2c-1,1 0,1 -1,1 0,0 -3,6 -3,6 -1,1 -2,2 -1,3 0,1 1,2 1,3l10 17 25 0 12 -21c0,-1 -1,-2 -1,-3l-5 -7c-1,-2 -2,-4 -3,-5 0,-1 -1,-2 -1,-3 -1,-1 -1,-2 -2,-2l-25 0z"/>
   <path class="fil2" d="M212 145c-1,1 -3,3 -3,3 -1,1 -2,2 -3,3 -2,2 -3,4 -5,7 -1,1 -1,2 -2,3 -1,1 -1,3 -2,4 0,0 -2,5 -3,6 0,1 -1,3 -1,3l-2 7c0,1 0,3 0,3 0,1 -1,3 -1,3l0 4 0 3 0 4c0,0 0,1 0,2 0,1 0,2 0,2 1,1 1,2 1,2 0,1 0,2 0,3 0,1 2,6 2,7 0,1 1,3 1,3l3 7c0,1 1,3 2,4 0,0 0,1 1,1 0,1 1,1 1,2 0,0 5,7 7,8l3 4c1,1 1,1 2,2 2,1 9,6 9,6 0,0 1,1 1,1 1,0 1,1 2,1 0,0 3,1 3,2l4 1c1,0 1,1 2,1 1,-2 6,-10 7,-12 2,-3 2,-1 -1,-5 -1,-2 -2,-4 -4,-6l-5 -9c-1,-1 -1,-1 -4,-1 -2,0 -15,-2 -17,-2l-4 12c0,1 0,2 -1,3 0,-1 -1,-2 -1,-2 -1,-1 -1,-2 -2,-3 0,0 -2,-3 -2,-4 -1,-1 -4,-6 -4,-7 -1,-1 -2,-5 -2,-6 -1,-1 -1,-3 -2,-4 0,-1 0,-2 0,-3 -1,-1 -1,-2 -1,-3 0,-1 0,-2 0,-2 3,-1 7,0 10,0 0,-2 1,-4 2,-6l6 -13c0,-1 -2,-5 -2,-7 -1,0 -1,-2 -1,-3 -1,0 -1,-2 -2,-3 0,-1 -1,-2 -1,-3 -1,-1 0,-1 -1,0l-6 1c-1,0 -1,0 -1,0l1 0c0,0 0,0 0,0l2 -1c1,0 1,0 2,0 3,-1 3,-1 4,-3 1,-1 2,-2 2,-4 1,0 2,-3 3,-3 0,-1 1,-2 2,-3 4,-7 3,-3 1,-10l0 0z"/>
   <path class="fil2" d="M270 211c1,0 4,6 4,6 1,1 4,7 4,7 1,1 1,1 3,1l19 -1 6 -10c0,-1 3,-6 4,-7 1,-2 2,-3 1,-4 0,-1 -1,-2 -2,-4 -1,-3 -6,-13 -7,-15 -2,0 -9,0 -10,-1l0 0 -13 0c-1,1 -2,3 -2,3 -1,2 -2,3 -2,4 -2,2 -7,12 -8,14 -1,1 3,5 3,7z"/>
   <path class="fil2" d="M221 184c0,0 -1,0 -2,0 0,0 -8,0 -10,0 0,0 -6,15 -7,17 -1,3 -1,2 1,7 1,1 1,2 2,3l3 6c0,1 2,5 2,5 4,0 7,1 10,1 2,0 8,1 10,1l1 -2c0,0 0,0 0,-1l1 0 0 0 3 -7c0,0 0,0 0,0 1,0 4,-6 4,-6 1,-4 3,-2 0,-7l-8 -15c-2,-3 -1,-3 -3,-3 -1,0 -1,1 -2,0 0,1 -1,0 -2,1 -1,0 -2,0 -3,0z"/>
   <path class="fil2" d="M241 161c0,1 0,1 0,2l25 -1c1,-1 8,-12 9,-13 0,0 0,-1 1,-1 0,-1 0,0 0,-1l1 -1c0,-1 -1,-2 -1,-2 -1,-1 -1,-1 -2,-2l-6 -7c0,-1 -1,-2 -2,-3 -1,-1 -16,0 -18,0 -2,0 -3,0 -4,1 0,0 0,0 -1,1l-8 10c0,0 -2,2 -3,3l9 14z"/>
   <path class="fil2" d="M242 130c-1,0 -2,0 -3,0 0,0 -7,3 -8,3 0,0 0,0 -1,0 -1,1 -1,1 -2,1 0,0 0,0 0,0l-6 4 -9 6c-1,1 0,1 -1,1 1,1 1,3 2,5l4 -1c1,0 2,0 3,0 1,-1 4,-1 5,-1 1,-1 5,-1 6,-2l12 -14c0,-1 -1,-1 -2,-2 4,-1 9,-2 13,-2 2,0 11,0 13,1 -1,1 -1,2 -2,2 0,1 6,8 8,10 0,0 3,4 3,4 1,0 7,1 8,1l13 2 2 -4c0,0 0,0 0,1 -2,4 -2,2 3,9 0,1 1,3 2,4 0,0 3,5 4,6 1,2 1,1 3,2 2,0 3,0 5,0l-1 -1c0,-1 0,-1 -1,-2 0,-1 0,-1 -1,-2 -1,-1 -1,-2 -2,-3 -3,-4 -6,-8 -9,-11l-6 -5c0,-1 -5,-4 -5,-4 -1,-1 -3,-2 -4,-2 -1,-1 -3,-1 -3,-2 -1,0 -3,-1 -3,-1l-7 -3c-1,0 -3,0 -3,0 -3,-1 -5,-1 -8,-2 -2,0 -5,0 -7,0 -8,0 -9,1 -15,2z"/>
   <path class="fil0" d="M171 158l0 102 -28 0c-2,-7 -4,-14 -7,-19 -11,15 -28,22 -50,22 -24,0 -43,-8 -58,-24 -15,-17 -23,-39 -23,-67 0,-27 8,-50 22,-69 15,-18 37,-27 65,-27 22,0 40,5 53,16 13,11 22,27 26,47l-54 5c-3,-19 -11,-28 -25,-28 -19,0 -28,17 -28,52 0,21 3,35 9,42 6,7 13,10 21,10 7,0 13,-2 17,-6 5,-4 8,-10 8,-17l-31 0 0 -39 83 0z"/>
  </g>
 </g>
</svg>
