<?xml version="1.0" encoding="UTF-8"?>
<!DOCTYPE svg PUBLIC "-//W3C//DTD SVG 1.1//EN" "http://www.w3.org/Graphics/SVG/1.1/DTD/svg11.dtd">
<!-- Creator: CorelDRAW X7 -->
<svg xmlns="http://www.w3.org/2000/svg" xml:space="preserve" width="43.3492mm" height="43.3492mm" version="1.1" style="shape-rendering:geometricPrecision; text-rendering:geometricPrecision; image-rendering:optimizeQuality; fill-rule:evenodd; clip-rule:evenodd"
viewBox="0 0 4335 4335"
 xmlns:xlink="http://www.w3.org/1999/xlink">
 <defs>
  <style type="text/css">
   <![CDATA[
    .fil0 {fill:#2B2A29}
   ]]>
  </style>
 </defs>
 <g id="Layer_x0020_1">
  <metadata id="CorelCorpID_0Corel-Layer"/>
  <g id="_248639352">
   <path id="_248640216" class="fil0" d="M2994 841c619,-669 723,-61 1179,66 55,16 96,20 92,46 -40,261 -125,311 -220,313 -106,3 -192,1 -255,31 -80,39 -139,88 -181,146l-648 -330c21,-77 32,-167 33,-272l0 0 0 0zm547 728c-138,368 46,914 -570,1115 -38,313 -36,626 8,939l74 -8c135,-14 134,108 70,187l-398 0c-29,-375 -102,-785 -72,-1143 -210,56 -336,41 -564,-46 -111,-42 -568,-315 -692,-204 -69,63 117,313 -343,758l8 440 78 0c118,0 111,118 69,195l-227 0c-151,0 -120,16 -122,-143l-3 -342 -25 -213c1,-126 92,-260 5,-562 -57,-199 -53,-357 -203,-379 -139,280 -272,537 -389,831 -7,20 -18,38 -28,58 -133,307 -189,76 -114,-106l50 -121c64,-258 243,-740 413,-919 640,-675 1937,-36 2319,-620l656 283 0 0 0 0 0 0z"/>
  </g>
 </g>
</svg>
