<?xml version="1.0" encoding="utf-8"?>
<!-- Generator: Adobe Illustrator 16.0.0, SVG Export Plug-In . SVG Version: 6.00 Build 0)  -->
<!DOCTYPE svg PUBLIC "-//W3C//DTD SVG 1.1//EN" "http://www.w3.org/Graphics/SVG/1.1/DTD/svg11.dtd">
<svg version="1.1" id="Layer_1" xmlns="http://www.w3.org/2000/svg" xmlns:xlink="http://www.w3.org/1999/xlink" x="0px" y="0px"
	 width="143.625px" height="78.375px" viewBox="0 0 143.625 78.375" enable-background="new 0 0 143.625 78.375"
	 xml:space="preserve">
<path d="M142.542,68.971c0,4.107-2.594,7.438-5.796,7.438H7.147c-3.201,0-5.795-3.329-5.795-7.438V8.814
	c0-4.107,2.595-7.438,5.795-7.438h129.599c3.201,0,5.796,3.33,5.796,7.438V68.971z"/>
<path fill="#FA9220" d="M76.658,68.938c0,4.125-2.202,7.469-4.918,7.469H5.96c-2.716,0-4.918-3.344-4.918-7.469V8.845
	c0-4.125,2.202-7.468,4.918-7.468h65.78c2.716,0,4.918,3.344,4.918,7.468V68.938z"/>
<g display="none">
	<path display="inline" fill="#FFFFFF" d="M103.232,63.207H88.922c-2.064,0-3.541-0.463-4.424-1.389
		c-0.885-0.928-1.325-2.401-1.325-4.424V22.194c0-2.065,0.452-3.551,1.356-4.456c0.904-0.905,2.369-1.357,4.393-1.357h15.174
		c2.233,0,4.172,0.139,5.813,0.415c1.64,0.277,3.108,0.81,4.407,1.597c1.104,0.66,2.086,1.496,2.938,2.507
		c0.854,1.012,1.501,2.13,1.948,3.354c0.444,1.225,0.671,2.519,0.671,3.881c0,4.685-2.348,8.113-7.023,10.285
		c6.149,1.96,9.229,5.771,9.229,11.436c0,2.619-0.672,4.979-2.015,7.074c-1.342,2.098-3.148,3.647-5.436,4.647
		c-1.427,0.597-3.063,1.019-4.918,1.263C107.863,63.085,105.702,63.207,103.232,63.207z M92.66,23.504V35.61h8.688
		c2.364,0,4.19-0.224,5.479-0.67c1.288-0.447,2.272-1.299,2.955-2.556c0.53-0.896,0.798-1.896,0.798-3.002
		c0-2.364-0.842-3.934-2.521-4.711c-1.684-0.777-4.25-1.166-7.699-1.166L92.66,23.504L92.66,23.504z M102.529,42.414H92.66v13.671
		h10.189c6.401,0,9.606-2.312,9.606-6.933c0-2.362-0.83-4.076-2.483-5.146C108.313,42.945,105.83,42.414,102.529,42.414z"/>
	<path display="inline" fill="#FFFFFF" d="M146.1,56.148l-7.507-29.833v32.326c0,1.789-0.399,3.129-1.198,4.023
		s-1.854,1.343-3.178,1.343c-1.277,0-2.32-0.442-3.13-1.325c-0.812-0.885-1.215-2.229-1.215-4.041V21.588
		c0-2.044,0.532-3.423,1.599-4.137c1.063-0.713,2.502-1.07,4.313-1.07h2.938c1.768,0,3.051,0.16,3.85,0.479
		c0.799,0.319,1.39,0.894,1.773,1.725c0.383,0.831,0.813,2.183,1.309,4.057l6.804,25.649l6.804-25.649
		c0.489-1.874,0.926-3.226,1.313-4.057c0.384-0.831,0.975-1.405,1.771-1.725c0.799-0.319,2.082-0.479,3.85-0.479h2.939
		c1.811,0,3.246,0.357,4.313,1.07c1.063,0.714,1.6,2.092,1.6,4.137v37.053c0,1.789-0.397,3.129-1.196,4.023
		s-1.867,1.343-3.211,1.343c-1.258,0-2.289-0.448-3.1-1.343s-1.213-2.234-1.213-4.023V26.315l-7.508,29.833
		c-0.489,1.938-0.893,3.354-1.197,4.265c-0.311,0.905-0.88,1.729-1.708,2.476c-0.831,0.744-1.979,1.118-3.45,1.118
		c-1.105,0-2.044-0.239-2.813-0.72c-0.771-0.48-1.361-1.092-1.788-1.836c-0.427-0.745-0.763-1.57-1.007-2.477
		C146.604,58.07,146.354,57.128,146.1,56.148z"/>
</g>
<g display="none">
	<g display="inline">
		<g>
			<path fill="#FFFFFF" d="M10.711,19.689c0.568,0,1.141-0.192,1.611-0.584l6.839-5.703c1.068-0.891,1.212-2.479,0.321-3.547
				s-2.479-1.212-3.547-0.321l-6.839,5.703c-1.068,0.891-1.212,2.479-0.321,3.547C9.273,19.38,9.989,19.689,10.711,19.689z"/>
			<path fill="#FFFFFF" d="M53.374,13.401l6.839,5.703c0.471,0.393,1.042,0.584,1.612,0.584c0.721,0,1.438-0.308,1.936-0.905
				c0.891-1.069,0.748-2.657-0.322-3.548L56.6,9.533c-1.068-0.891-2.657-0.747-3.547,0.321
				C52.162,10.922,52.306,12.51,53.374,13.401z"/>
			<path fill="#FFFFFF" d="M57.283,20.989c-5.045-5.045-11.586-8.052-18.623-8.609V9.766c0-1.391-1.127-2.519-2.519-2.519
				c-1.391,0-2.519,1.127-2.519,2.519v2.636c-6.94,0.608-13.385,3.602-18.371,8.587c-5.613,5.613-8.705,13.076-8.705,21.016
				c0,7.938,3.092,15.401,8.705,21.015c0.521,0.521,1.058,1.021,1.609,1.496l-2.025,3.401c-0.711,1.194-0.319,2.741,0.875,3.452
				c0.404,0.24,0.848,0.355,1.286,0.355c0.859,0,1.696-0.439,2.167-1.23l1.789-3.006c4.577,2.761,9.832,4.234,15.314,4.234
				c5.46,0,10.701-1.457,15.311-4.24l1.792,3.012c0.471,0.791,1.308,1.23,2.166,1.23c0.438,0,0.882-0.115,1.287-0.355
				c1.195-0.711,1.586-2.258,0.875-3.452l-3.148-5.288c-0.363-0.611-0.968-1.04-1.665-1.182c-0.696-0.141-1.421,0.02-1.993,0.441
				c-4.259,3.139-9.317,4.797-14.625,4.797c-13.61,0-24.683-11.072-24.683-24.688c0-13.611,11.073-24.683,24.683-24.683
				c13.61,0,24.684,11.073,24.684,24.684c0,4.152-1.052,8.271-3.042,11.889c-0.671,1.219-0.227,2.75,0.992,3.422
				c1.219,0.67,2.75,0.227,3.421-0.992c2.399-4.358,3.667-9.307,3.667-14.313C65.987,34.065,62.896,26.602,57.283,20.989z"/>
			<path fill="#FFFFFF" d="M36.142,23.492c-1.391,0-2.519,1.127-2.519,2.519v15.994c0,0.667,0.265,1.31,0.738,1.78l7.124,7.124
				c0.492,0.491,1.136,0.737,1.781,0.737s1.289-0.246,1.782-0.737c0.983-0.984,0.983-2.578,0-3.563L38.66,40.96V26.011
				C38.66,24.62,37.533,23.492,36.142,23.492z"/>
		</g>
	</g>
</g>
<g>
	<g>
		<path fill="#FFFFFF" d="M41.933,44.646h6.613c1.52,0,2.751-1.23,2.751-2.752c0-1.522-1.231-2.751-2.751-2.751h-6.614
			c-0.877-1.275-2.344-2.116-4.013-2.116c-0.027,0-0.05,0.007-0.077,0.009l-6.026-8.482c-0.881-1.24-2.599-1.531-3.838-0.65
			c-1.238,0.882-1.529,2.599-0.649,3.838l6.032,8.49c-0.19,0.521-0.31,1.076-0.31,1.662c0,2.688,2.178,4.867,4.867,4.867
			C39.587,46.764,41.055,45.923,41.933,44.646z"/>
		<path fill="#FFFFFF" d="M58.251,61.869c5.055-5.145,8.181-12.191,8.181-19.975c0-15.75-12.765-28.509-28.511-28.509
			c-15.747,0-28.511,12.763-28.511,28.509c0,7.783,3.126,14.83,8.182,19.976l-2.58,2.577c-1.422,1.422-1.422,3.728-0.001,5.148
			c0.71,0.711,1.643,1.063,2.574,1.063s1.863-0.354,2.573-1.063l3.214-3.217c4.262,2.535,9.226,4.021,14.548,4.021
			c5.322,0,10.286-1.481,14.549-4.021l3.215,3.219c0.711,0.709,1.642,1.063,2.574,1.063c0.93,0,1.864-0.354,2.574-1.063
			c1.421-1.427,1.421-3.729-0.001-5.147L58.251,61.869z M37.919,58.667c-1.013,0-1.833,0.823-1.833,1.835v2.473
			c-10.211-0.883-18.362-9.035-19.244-19.244h2.472c1.013,0,1.835-0.815,1.835-1.836c0-1.013-0.822-1.834-1.835-1.834h-2.472
			c0.882-10.208,9.033-18.362,19.244-19.243v2.473c0,1.013,0.821,1.833,1.833,1.833c1.014,0,1.834-0.821,1.834-1.833v-2.473
			c10.212,0.881,18.361,9.033,19.245,19.243h-2.473c-1.013,0-1.834,0.821-1.834,1.834c0,1.021,0.822,1.836,1.834,1.836h2.473
			c-0.882,10.209-9.032,18.36-19.243,19.244v-2.472C39.755,59.49,38.933,58.667,37.919,58.667z"/>
		<path fill="#FFFFFF" d="M30.607,11.867c-2.199-1.622-4.912-2.592-7.854-2.592c-7.328,0-13.268,5.94-13.268,13.268
			c0,1.801,0.362,3.517,1.013,5.083C14.571,19.829,21.865,13.998,30.607,11.867z"/>
		<path fill="#FFFFFF" d="M65.342,27.625c0.65-1.566,1.013-3.282,1.013-5.083c0.001-7.327-5.939-13.268-13.267-13.268
			c-2.944,0-5.655,0.97-7.854,2.594C53.975,13.998,61.268,19.832,65.342,27.625z"/>
	</g>
</g>
<g>
	<path fill="#FFFFFF" d="M122.93,22.834h-19.371v12.417h16.192c1.501,0,2.621,0.337,3.36,1.01c0.74,0.673,1.109,1.573,1.109,2.699
		c0,1.125-0.375,2.021-1.125,2.683c-0.759,0.662-1.867,0.992-3.353,0.992h-16.188v15.993c0,2.031-0.459,3.538-1.375,4.521
		c-0.916,0.981-2.097,1.479-3.523,1.479c-1.457,0-2.646-0.497-3.563-1.487s-1.373-2.492-1.373-4.507V21.278
		c0-1.412,0.209-2.566,0.629-3.46c0.418-0.894,1.075-1.545,1.971-1.954c0.896-0.408,2.035-0.612,3.429-0.612h23.181
		c1.565,0,2.73,0.348,3.492,1.043c0.764,0.695,1.145,1.606,1.145,2.732c0,1.148-0.381,2.069-1.145,2.765
		C125.662,22.487,124.497,22.834,122.93,22.834z"/>
</g>
</svg>
