<?xml version="1.0" encoding="UTF-8"?>
<!DOCTYPE svg PUBLIC "-//W3C//DTD SVG 1.1//EN" "http://www.w3.org/Graphics/SVG/1.1/DTD/svg11.dtd">
<!-- Creator: CorelDRAW X7 -->
<svg xmlns="http://www.w3.org/2000/svg" xml:space="preserve" width="43.3492mm" height="43.3492mm" version="1.1" style="shape-rendering:geometricPrecision; text-rendering:geometricPrecision; image-rendering:optimizeQuality; fill-rule:evenodd; clip-rule:evenodd"
viewBox="0 0 4335 4335"
 xmlns:xlink="http://www.w3.org/1999/xlink">
 <defs>
  <style type="text/css">
   <![CDATA[
    .fil0 {fill:#2B2A29}
   ]]>
  </style>
 </defs>
 <g id="Layer_x0020_1">
  <metadata id="CorelCorpID_0Corel-Layer"/>
  <g id="_249415904">
   <path id="_249416072" class="fil0" d="M3682 1153c-59,21 -145,-27 -278,-187 -51,18 -90,60 -107,148 -33,168 19,276 91,425 79,162 161,315 126,526 144,18 277,14 398,-16 68,-6 125,-2 167,15 42,16 70,45 80,89 25,163 89,268 154,369 4,83 1,164 -31,232l-18 47 -9 107c-11,142 -62,261 -177,68 -12,-74 -1,-147 33,-221l53 -24c-3,-104 -13,-204 -47,-293 -26,-86 -74,-148 -147,-183l-74 -9 44 111c10,118 25,225 66,281 23,82 12,133 -31,154 -34,14 -64,75 -93,196 -30,68 -67,106 -113,113 -47,-12 -56,-106 -37,-255 36,-45 73,-62 109,-66 -6,-80 -3,-157 11,-231 -7,-93 -34,-180 -118,-252 -32,88 -170,126 -346,147l-115 -120c-306,290 -662,457 -1006,330 -25,18 -35,88 -44,210 -70,101 -137,287 -203,419 -49,102 -39,186 8,260 106,45 208,114 271,188 102,4 180,9 245,43 44,34 70,77 76,131l-54 21 60 82c-21,72 -91,91 -228,86l-79 -137 -153 -43c-56,-112 -145,-219 -336,-316 -127,7 -194,-61 -187,-222 64,-147 88,-287 29,-414 -270,-167 -437,-421 -417,-705 -430,-113 223,992 -1010,749 -71,-14 -145,-40 -225,-69 160,-28 619,-141 699,-334 207,-293 423,-507 654,-608 156,-199 432,-275 771,-287 101,-9 190,-36 259,-90 -70,-497 405,-741 58,-588 148,-360 608,-478 283,-440 167,-153 377,-237 676,-184 64,-92 216,-291 169,-53l77 -68 4 239c90,69 140,299 210,449 60,59 83,131 64,241 -93,121 -241,91 -262,-61l0 0z"/>
  </g>
 </g>
</svg>
